<svg version="1.0" xmlns="http://www.w3.org/2000/svg" width="512" height="512" viewBox="0 0 512 512">
  <g transform="translate(0,512) scale(0.1,-0.1)" fill="#000000" stroke="none">
    <!-- Outer circle -->
    <path d="M2300 5110 c-635 -67 -1208 -327 -1665 -755 -457 -428 -747 -982 -845 -1615 -25 -161 -25 -519 0 -680 98 -633 388 -1187 845 -1615 428 -401 982 -665 1565 -745 161 -22 519 -22 680 0 583 80 1137 344 1565 745 457 428 747 982 845 1615 25 161 25 519 0 680 -98 633 -388 1187 -845 1615 -428 401 -982 665 -1565 745 -140 19 -440 27 -580 15z"/>
    
    <!-- V Letter Path -->
    <path d="M1850 3200 l0 -800 150 0 150 0 0 550 0 550 200 -550 200 -550 100 0 100 0 200 550 200 550 0 -550 0 -550 150 0 150 0 0 800 0 800 -200 0 -200 0 -250 -650 -250 650 -200 0 -200 0 0 -800z"/>
  </g>
</svg>
